<svg xmlns="http://www.w3.org/2000/svg" viewBox="0 0 512 512">
  <defs/>
  <path fill="#45DCF9" stroke="#45DCF9" d="M246.5 21l19.5.5-19.5.5v-1zM232.5 22l6.5.5-6.5.5v-1zM273.5 22l6.5.5-6.5.5v-1zM224.5 23l3.5.5-3.5.5v-1zM284.5 23l3.5.5-3.5.5v-1zM217.5 24l3.5.5-3.5.5v-1zM291.5 24l3.5.5-3.5.5v-1zM212.5 25l2.5.5-2.5.5v-1zM297.5 25l2.5.5-2.5.5v-1zM202.5 27l2.5.5-2.5.5v-1zM307.5 27l2.5.5-2.5.5v-1zM198.5 28l2.5.5-2.5.5v-1zM194.5 29l2.5.5-2.5.5v-1zM101.5 43l2.5.5-2.5.5v-1zM156.5 43l1.5.5-5.5 2.5v-1l4-2zM109.5 44l3 4-3-4zM98.5 45l-1 2 1-2zM413.5 45l7.5.5-7.5.5v-1zM426.5 45l3.5.5-3.5.5v-1zM48.5 47l1.5 2.5h-1l-.5-2.5zM65.5 47l-.5 1.5-.5 1.5-.5-1.5 1.5-1.5zM148.5 47l-1 2-2 1 1-2 2-1zM433.5 47l3 4-3-4zM365.5 48l3.5 2.5-1.5-.5-2-2zM405.5 48l-3 4 3-4zM32.5 49l.5 122.5h-1L32.5 49zM81.5 49l.5 109.5 2 2-3-2L81.5 49zM113.5 50l.5 119.5h-1l.5-119.5zM437.5 52l1 2-1-2zM137.5 53l-1 2 1-2zM374.5 53l1 2-1-2zM379.5 56l1 2-1-2zM131.5 57l.5 112.5h-1l.5-112.5zM382.5 58l1 2-1-2zM385.5 61l.5 389.5h-1l.5-389.5zM398.5 62l.5 4.5h-1l.5-4.5zM442.5 64l.5 2.5h-1l.5-2.5zM443.5 69l.5 3.5h-1l.5-3.5zM444.5 77l.5 11.5h-1l.5-11.5zM445.5 97l.5 7.5h-1l.5-7.5zM446.5 112l.5 8.5h-1l.5-8.5zM447.5 127l.5 8.5h-1l.5-8.5zM248.5 133l15.5.5-15.5.5v-1zM238.5 134l4.5.5-4.5.5v-1zM269.5 134l4.5.5-4.5.5v-1zM233.5 135l2.5.5-2.5.5v-1zM276.5 135l3.5.5-3.5.5v-1zM448.5 143l.5 8.5h-1l.5-8.5zM202.5 145l1.5.5-4.5 2.5 1-2 2-1zM308.5 145l4.5 2.5-1.5-.5q-3.8-.2-3-2zM462.5 145q2.8 1.2.5 2.5l-.5 8.5-.5-8.5.5-2.5z" opacity=".85882353"/>
  <path fill="#45DCF9" stroke="#45DCF9" d="M464.5 148l1.5 2.5-2-1 .5-1.5zM193.5 150l-1 2 1-2zM318.5 150l1 2-1-2zM466.5 152l2.5 5.5h-1l-1.5-5.5zM188.5 153l-1 2 1-2zM323.5 153l1 2-1-2zM184.5 156l-1 2 1-2zM327.5 156l1 2-1-2zM95.5 158l-2 3 2-3zM181.5 158l-2 3 2-3zM330.5 158l2 3-2-3zM449.5 158l.5 8.5h-1l.5-8.5zM50.5 159l1 2-1-2zM62.5 159l-1 2 1-2zM335.5 162l14 15-14-15zM175.5 163l-13 14 13-14zM463.5 163l.5 9.5h-1l.5-9.5zM112.5 173l.5 2.5h-1l.5-2.5zM33.5 174l.5 2.5h-1l.5-2.5zM130.5 174l.5 2.5h-1l.5-2.5zM450.5 174l.5 8.5h-1l.5-8.5zM160.5 179l-2 3 2-3zM351.5 179l2 3-2-3zM464.5 180l.5 9.5h-1l.5-9.5zM36.5 183l1.5 2.5-2-1 .5-1.5zM157.5 183l-2 3 2-3zM354.5 183l2 3-2-3zM107.5 187l-1 2 1-2zM154.5 187l-1 2 1-2zM357.5 187l1 2-1-2zM39.5 189l2 3-2-3zM451.5 189l.5 9.5h-1l.5-9.5zM105.5 190l-2 3 2-3zM151.5 192l-1 2 1-2zM360.5 192l1 2-1-2zM482.5 194l.5 2.5h-1l.5-2.5zM122.5 196l-1 2 1-2zM98.5 197l-2 3 2-3zM148.5 197l-.5 1.5-2.5 5.5-.5-1.5 3.5-5.5zM363.5 197l3.5 6.5h-1l-2.5-6.5zM465.5 197l.5 9.5h-1l.5-9.5zM48.5 198l1 2-1-2zM483.5 198l.5 2.5h-1l.5-2.5zM120.5 199l-2 3 2-3zM51.5 200l1 2-1-2zM94.5 200l-1 2 1-2zM54.5 202l1.5 1.5v266h-1v-266l-.5-1.5zM91.5 202l-1 2 1-2zM484.5 202l.5 2.5h-1l.5-2.5zM29.5 204l6 7-6-7zM116.5 204l-5 6 5-6zM452.5 205l.5 8.5h-1l.5-8.5zM26.5 207l.5 2.5h-1l.5-2.5zM485.5 207l.5 2.5h-1l.5-2.5zM142.5 209l.5 1.5-1.5 2.5-.5-1.5 1.5-2.5zM108.5 211l-1 2 1-2zM25.5 212l.5 2.5h-1l.5-2.5zM38.5 212l1 2-1-2zM486.5 212l.5 2.5h-1l.5-2.5zM466.5 214l.5 9.5h-1l.5-9.5zM487.5 217l.5 3.5h-1l.5-3.5zM24.5 218l.5 2.5h-1l.5-2.5zM453.5 220l.5 8.5h-1l.5-8.5zM23.5 224l.5 4.5h-1l.5-4.5zM488.5 224l.5 4.5h-1l.5-4.5zM467.5 231l.5 9.5h-1l.5-9.5zM135.5 232l.5 2.5h-1l.5-2.5zM376.5 232l.5 2.5h-1l.5-2.5zM22.5 233l.5 6.5h-1l.5-6.5zM489.5 233l.5 6.5h-1l.5-6.5zM454.5 236l.5 9.5h-1l.5-9.5zM134.5 238l.5 3.5h-1l.5-3.5zM377.5 238l.5 3.5h-1l.5-3.5zM21.5 247l.5 17.5h-1l.5-17.5zM133.5 247l.5 17.5h-1l.5-17.5zM378.5 247l.5 17.5h-1l.5-17.5zM468.5 247l.5 4.5h-1l.5-4.5zM490.5 247l.5 17.5h-1l.5-17.5zM467.5 257l.5 2.5h-1l.5-2.5zM449.5 258l-6 7 6-7zM441.5 265l-1 2 1-2zM377.5 269l.5 4.5h-1l.5-4.5zM432 269l2 .5-1 1-.5 200.5-.5-202zM134.5 270l.5 3.5h-1l.5-3.5zM462.5 271l-1 2 1-2zM22.5 272l.5 6.5h-1l.5-6.5zM489.5 272l.5 6.5h-1l.5-6.5zM460.5 274l-8 9 8-9zM135.5 277l.5 2.5h-1l.5-2.5zM376.5 277l.5 2.5h-1l.5-2.5zM23.5 283l.5 4.5h-1l.5-4.5zM450.5 283l-1 2 1-2zM488.5 283l.5 4.5h-1l.5-4.5zM443.5 288l.5 106.5 1 1-2 .5.5-108zM24.5 291l.5 3.5h-1l.5-3.5zM487.5 291l.5 3.5h-1l.5-3.5zM25.5 297l.5 2.5h-1l.5-2.5zM486.5 297l.5 2.5h-1l.5-2.5zM26.5 302l.5 2.5h-1l.5-2.5zM485.5 302l.5 2.5h-1l.5-2.5zM144.5 306l1.5 2.5-2-1 .5-1.5zM484.5 307l.5 2.5h-1l.5-2.5zM366.5 308l.5 1.5-3.5 5.5.5-1.5 2.5-5.5zM146.5 310l2.5 4.5-2-1-.5-3.5zM28.5 311l.5 2.5h-1l.5-2.5zM483.5 311l.5 2.5h-1l.5-2.5zM482.5 315l.5 2.5h-1l.5-2.5zM150.5 318l1 2-1-2zM361.5 318l-1 2 1-2zM153.5 323l1 2-1-2zM358.5 323l-1 2 1-2zM155.5 326l2 3-2-3zM356.5 326l-2 3 2-3zM158.5 330l2 3-2-3zM353.5 330l-2 3 2-3zM162.5 335l13 14-13-14zM349.5 335l-14 15 14-15zM39.5 345l1.5 3.5h-1l-.5-3.5zM179.5 351l2 3-2-3zM332.5 351l-2 3 2-3zM469.5 352l.5 1.5-1.5 2.5-.5-1.5 1.5-2.5zM183.5 354l1 2-1-2zM328.5 354l-2 3 2-3zM187.5 357l1 2-1-2zM324.5 357l-1 2 1-2zM192.5 360l1 2-1-2zM319.5 360l-1 2 1-2zM314.5 363l-1 2-5 2v-1l6-3zM199.5 364l4.5 2.5-1.5.5-3-3zM463.5 365l-.5 1.5-1.5 2.5.5-1.5 1.5-2.5zM458.5 374l-1 2 1-2zM232.5 376l2.5.5-2.5.5v-1zM277.5 376l2.5.5-2.5.5v-1zM238.5 377l3.5.5-3.5.5v-1zM270.5 377l3.5.5-3.5.5v-1zM247.5 378l17.5.5-17.5.5v-1zM455.5 379l-1 2 1-2zM453.5 382l-1 2 1-2zM451.5 385l-1 2 1-2zM449.5 388l-1 2 1-2zM447.5 391l-1 2 1-2zM105.5 435l3 4-3-4zM110.5 439l2 3-2-3zM115.5 443l1 2-1-2zM119.5 446l1 2-1-2zM122.5 448l1 2-1-2zM125.5 450l1 2-1-2zM128.5 452l1 2-1-2zM383.5 452l-1 2 1-2zM131.5 454l1 2-1-2zM380.5 454l-1 2 1-2zM136.5 457l1 2-1-2zM375.5 457l-1 2 1-2zM143.5 461l3.5 2.5-1.5-.5-2-2zM368.5 461l-1 2-2 1 1-2 2-1zM354.5 468l1.5.5-3.5 1.5v-1l2-1zM398.5 470l.5 2.5h-1l.5-2.5zM399.5 474l1.5 2.5-2-1 .5-1.5zM58.5 477l5 6-5-6zM87.5 477l-4 5 4-5zM429.5 477l-1 2 1-2zM401.5 478l3 4-3-4zM425.5 481l-1 2 1-2zM406.5 482l2.5 1.5-1.5.5-1-2zM198.5 483l2.5.5-2.5.5v-1zM67.5 484l2.5.5-2.5.5v-1zM202.5 484l2.5.5-2.5.5v-1zM307.5 484l2.5.5-2.5.5v-1zM418.5 484l2.5.5-2.5.5v-1zM212.5 486l2.5.5-2.5.5v-1zM297.5 486l2.5.5-2.5.5v-1zM217.5 487l3.5.5-3.5.5v-1zM291.5 487l3.5.5-3.5.5v-1zM224.5 488l3.5.5-3.5.5v-1zM284.5 488l3.5.5-3.5.5v-1zM232.5 489l6.5.5-6.5.5v-1zM273.5 489l6.5.5-6.5.5v-1zM246.5 490l19.5.5-19.5.5v-1z" opacity=".85882353"/>
  <path fill="#45DCFA" stroke="#45DCFA" d="M239.5 22h33l1 1h10l32 6q39.7 11.1 69.5 31v391.5l-1.5.5-27 16q-19 9-41 15l-32 6h-10l-1 1h-33l-1-1-17-1-25-5-32-11q-34.1-14.4-59.5-37.5v-220l1.5-1.5 10.5-8.5 11-18 4-17v-112l1.5-1.5q24.9-15.6 56-25l20-5 18-2 1-1h10l1-1zm9.5 111l-1 1h-9l-10 2-19 6q-20 8-34 21-18 15-29 36l-9 22-5 27 1 26 4 18q8 25 24 44 16 18 39 30l20 8 27 5 26-1 18-4q25-8 44-24 17-15 29-36l9-22 5-27-1-26-4-18q-8-26-24-44-19-23-47-35l-11-4-18-4-25-1z"/>
  <path fill="#45DCFA" stroke="#45DCFA" d="M40.5 43l7.5 3.5 2 4v109l1.5 1.5 8 1 4.5-3.5v-108l3.5-5.5 6-2 6.5 3.5 1 2v110l2.5 2.5 8 1 4.5-3.5v-108l4.5-6.5 5-1 7.5 5.5v124q-3.2 15.8-13.5 24.5l-9.5 6.5v268q-2.1 7.9-8.5 11.5l-6 2h-5q-8.9-1.6-12.5-8.5l-2-5v-268l-1.5-1.5q-7.7-3.2-12.5-9.5-6.5-7.5-9-19v-125l2.5-3.5 5-2zM421.5 45l5 1q8.1-.1 10.5 5.5l4 8 3 14 2 47 1 1 1 30 1 1 1 30 1 1v15l1 1v14l1 1v14l1 1v19q-3.1 10.9-11.5 16.5-4 3.7-10.5 4v203.5l-5.5 8.5q-4.5 4.5-14 4-7.7-1.8-11.5-7.5l-3-8v-402l3-13 5.5-6.5 5-2h9l1-1z"/>
  <path fill="#45DCFA" stroke="#45DCFA" d="M462.5 146l13.5 28.5 9 31 3 16v7l1 1v10l1 1v31l-1 1v10l-1 1v7l-3 16-9 31q-12.1 32.4-31.5 57.5l-.5-108q10.8-3.4 17-12.5l7-15 1-12-1-1v-15l-1-1v-16l-1-1-3-66-.5-1.5zM28.5 203l7 8 6.5 4.5-.5 134.5-9.5-24.5-7-29-1-13-1-1v-10l-1-1v-31l1-1v-10l1-1 1-13 3.5-12.5z"/>
  <path fill="#4EF1FD" stroke="#4EF1FD" d="M240.5 19l31.5.5-31.5.5v-1zM229.5 20l5.5.5-5.5.5v-1zM277.5 20l5.5.5-5.5.5v-1zM221.5 21l4.5.5-4.5.5v-1zM237.5 21l8.5.5-8.5.5v-1zM266.5 21l8.5.5-8.5.5v-1zM287.5 21l3.5.5-3.5.5v-1zM215.5 22l3.5.5-3.5.5v-1zM227.5 22l4.5.5-4.5.5v-1zM280.5 22l4.5.5-4.5.5v-1zM293.5 22l3.5.5-8.5 1.5v-1l5-1zM210.5 23l2.5.5-2.5.5v-1zM220.5 23l3.5.5-3.5.5v-1zM299.5 23l2.5.5-2.5.5v-1zM205.5 24l2.5.5-2.5.5v-1zM214.5 24l2.5.5-2.5.5v-1zM295.5 24l2.5.5-2.5.5v-1zM304.5 24l2.5.5-2.5.5v-1zM201.5 25l5.5 1.5-2.5.5-3-1v-1zM209.5 25l2.5.5-2.5.5v-1zM300.5 25l2.5.5-2.5.5v-1zM305.5 26l2.5.5-2.5.5v-1zM190.5 28l3.5 1.5-1.5.5-2-2zM320.5 28l1.5.5-3.5 1.5v-1l2-1zM183.5 30l4.5 1.5-2.5.5-2-2zM327.5 30l1.5.5-3.5 1.5v-1l2-1zM180.5 31l3.5 1.5-1.5.5-2-2zM330.5 31l1.5.5-3.5 1.5v-1l2-1zM177.5 32l3.5 1.5-1.5.5-2-2zM333.5 32l1.5.5-3.5 1.5v-1l2-1zM336.5 33v2l3-1v1l-3 1-2.5-1.5 2.5-1.5zM172.5 34l3.5 1.5-1.5.5-2-2zM169.5 35l3.5 1.5-1.5.5-2-2zM341.5 35l1.5.5-3.5 1.5v-1l2-1zM165.5 37l2.5 1.5-1.5.5-1-2zM346.5 37l3.5 1.5-2.5 1.5v-2l-3 1v-1l2-1zM162.5 38l2.5 1.5-1.5-.5-1-1zM158.5 40l2.5 1.5-3.5 1.5-1-2 2 1v-2zM353.5 40v2l2-1-1 2-3.5-1.5 2.5-1.5zM107.5 41l1.5.5-5.5 1.5v-1l4-1zM35.5 42l2.5 1.5-5 4-.5 1.5-1.5-2.5 4.5-4.5zM39.5 42l3.5.5-3.5.5v-1zM46.5 42l4.5 4.5-1.5 1.5-5.5-4.5 2.5-1.5zM67.5 42l2.5 1.5-2.5 1.5q-1.2-2.2-2.5.5 2.3 1.3-.5 2.5l-2 1 .5-1.5 4.5-5.5zM71.5 42l3.5.5-3.5.5v-1zM78.5 42l3.5 3.5-1.5 1.5-4.5-3.5 2.5-1.5zM99.5 42q3 1.5 0 3-3-1.5 0-3zM154.5 42l1 2-1-2zM357.5 42l8.5 4.5-2 1 .5-1.5-2 1v-2l-2 1v-2l-2 1v-2l-2 1 1-2zM111.5 43q4.5 2 1 4-4.5-2-1-4zM151.5 43l2.5 1.5-1.5-.5-1.5.5.5 1.5-2-1v2q-3-1.5 0-3l2-1zM411.5 43l3.5.5-3.5.5v-1zM408.5 44l4.5 1.5-2.5.5-2-2zM416.5 44l11.5.5-11.5.5v-1zM432.5 44q3 1.5 0 3l-2.5-1.5 2.5-1.5zM406.5 45l2.5 1.5-2.5 1.5-1.5-.5-2.5 3.5 1.5-2.5 2.5-3.5zM95.5 46l1 2-1.5-.5 1 2v108h-1L94.5 50 94 159.5l-1.5 1.5-7-1q-1.7 2.8-3.5-1.5L82.5 51l1 108h2l7 1 .5-2.5v-107l2.5-4.5zM146.5 46l1 2-1-2zM114.5 47l-.5 1.5-.5 1.5-.5-1.5 1.5-1.5zM144.5 47q3 1.5 0 3l-4 2-2-1v2l-1.5-.5-1.5 2.5-2-1-1 3-1.5-.5 2-1q-2.2-1.2.5-2.5l9-5 2 1v-2zM367.5 47l-1 2 1-2zM434.5 47l2 3-2-3zM30.5 48l1.5 2.5V168l-2-.5 1-1v-116l-.5-2.5zM369.5 48l5.5 3.5-2 1 .5-1.5-2 1-3.5-2.5 1.5-1.5zM50.5 50l1 109 1-108 .5 108 7.5 1 .5-2.5.5-106.5.5 108.5-2.5 1.5q-1.2-2.2-6-1-1.7 2.8-3.5-1.5L50.5 50zM63.5 50l.5 108.5h-1L63.5 50zM438.5 50q3 1.5 0 3-3-1.5 0-3zM400.5 51l1 2-2.5-.5 1.5-1.5zM376.5 52l6.5 4.5q-1.5 3-3 0l-.5-1.5-1.5.5.5-1.5-2 1q-3-1.5 0-3zM440.5 53l-1 2 1-2zM398.5 54l1.5 3.5h-1l-.5-3.5zM441.5 55l-.5 1.5-.5 1.5-.5-1.5 1.5-1.5zM129.5 57l.5 107.5h-1l.5-107.5z" opacity=".10588235"/>
  <path fill="#4EF1FD" stroke="#4EF1FD" d="M384.5 57l1 4q-4.5-2-1-4zM397.5 57l1.5 4.5h-1l-.5-4.5zM387.5 60l.5 391.5h-1l.5-391.5zM396.5 60l.5 3.5h-1l.5-3.5zM397.5 66l.5 404.5-1.5 3.5-.5-2.5 1-1v-402h-1l-.5 401.5-.5-401.5 2.5-2.5zM443.5 66l.5 2.5h-1l.5-2.5zM445.5 67l.5 3.5h-1l.5-3.5zM444.5 72l.5 4.5h-1l.5-4.5zM446.5 74l.5 6.5h-1l.5-6.5zM445.5 84l.5 12.5h-1l.5-12.5zM447.5 91l.5 8.5h-1l.5-8.5zM446.5 103l.5 8.5h-1l.5-8.5zM448.5 106l.5 10.5h-1l.5-10.5zM447.5 118l.5 8.5h-1l.5-8.5zM449.5 122l.5 8.5h-1l.5-8.5zM448.5 133l.5 9.5h-1l.5-9.5zM243.5 134l7.5.5-5 .5q1.4 4-5.5 2v-1l3.5-.5-.5-1.5zM261.5 134l7.5.5-2 1 5 1-6 .5q1.4-3.7-4.5-2v-1zM236.5 135l2.5.5-2.5.5v-1zM273.5 135l2.5.5-2.5.5v-1zM230 136l8 1.5-3.5.5q-1.5-2.5-3 1l-2.5-.5 1-2.5zM279 136l4 1.5q.8 2.6-2.5 1.5l-1.5-3zM274.5 137l3.5.5-3.5.5v-1zM222.5 138l4.5 1.5-1.5.5-3-1v-1zM287.5 138l2.5.5-4.5 1.5v-1l2-1zM450.5 138l.5 8.5h-1l.5-8.5zM219.5 139l4.5 1.5-2.5.5-2-2zM291.5 139l1.5.5-4.5 1.5v-1l3-1zM216.5 140l3.5 1.5-1.5.5-2-2zM294.5 140l1.5.5-3.5 1.5v-1l2-1zM213.5 141l3.5 1.5-1.5.5-2-2zM297.5 141l1.5.5-3.5 1.5v-1l2-1zM300.5 142v2l3.5-1-.5 3-1-2-2 1-2.5-1.5 2.5-1.5zM208 143l4 1.5-3.5 1.5-.5-3zM460.5 143q3.3-1.1 2.5 1.5h2l-3 1-.5 2.5-1-4-1.5.5 1.5-1.5zM206.5 144l.5 3-5.5 2-1-2 1.5.5.5-1.5 2 1v-2l1.5.5.5-1.5zM305.5 144l2.5 1.5-.5 1.5 2-1-1 2-3.5-1.5.5-2.5zM465.5 146l-1 2 1-2zM311.5 147l-1 2 1-2zM198.5 148q3 1.5 0 3-14.3 6.2-24 17l-1.5-.5-.5 1.5-.5-1.5 6.5-6.5 1.5.5 2.5-3.5 1.5.5 2.5-3.5 2 1 1-3 2 1v-2l1.5.5 1.5-2.5 2 1v-2l2 1v-2zM313.5 148v2l2-1v2l2-1 2 3 1.5-.5-.5 1.5 2-1 1 3 2-1 3 4q1.7-2.8 3.5 1.5l.5 1.5 1-1 6.5 6.5-.5 1.5-2-3-1 1-5-5-19.5-12.5 1.5-1.5zM466.5 148l-1 2 1-2zM449.5 150l.5 7.5h-1l.5-7.5zM467.5 150l-1 2 1-2zM460.5 152l.5 8.5h-1l.5-8.5zM468.5 152l-1 2 1-2zM451.5 153l.5 9.5h-1l.5-9.5zM469.5 154l-1 2 1-2zM462.5 156l.5 9.5h-1l-1-2 1.5-7.5zM470.5 156l-.5 1.5.5 1.5 1.5-.5-1.5 2.5-1.5-3.5 1.5-1.5zM54.5 161l3.5.5-3.5.5v-1zM86.5 161l3.5.5-3.5.5v-1zM473.5 162l.5 1.5-2 1 1.5-2.5zM450.5 164l.5 9.5h-1l.5-9.5zM474.5 165l-.5 1.5-.5 1.5-.5-1.5 1.5-1.5zM115.5 167l.5 5.5h-1l.5-5.5zM130.5 167l.5 6.5h-1l.5-6.5zM461.5 168l1 11 1-6 .5 9.5h-1l-2-4 .5-10.5zM452.5 169l.5 8.5h-1l.5-8.5zM476.5 169l.5 1.5-1.5 2.5-.5-1.5 1.5-2.5zM30.5 170l.5 3.5h-1l.5-3.5zM113.5 170l.5 3.5h-1l.5-3.5zM170.5 170l-1 2 1-2zM341.5 170l1 2-1-2zM128.5 171l1.5 7.5h-1l-.5-7.5zM32.5 172l.5 2.5h-1l.5-2.5zM477.5 172l.5 1.5-1.5 2.5-.5-1.5 1.5-2.5zM166.5 173l.5 2.5-4.5 4.5-1.5-1.5 5.5-5.5zM344.5 173l6.5 5.5-1.5 1.5-4.5-4.5.5-1.5-1-1zM112.5 176l1.5 3.5h-1l-.5-3.5zM33.5 177l.5 1.5-1.5 2.5-.5-1.5 1.5-2.5zM127.5 177l1.5 4.5h-1l-.5-4.5zM111.5 179l1.5 3.5h-1l-.5-3.5zM34.5 180l1.5 3.5-2 1 1-2h-2l1.5-2.5zM160.5 180q3.5 2-1 4-3.5-2 1-4zM351.5 180q4.5 2 1 4-4.5-2-1-4zM451.5 180l.5 8.5h-1l.5-8.5zM480.5 180l.5 1.5-1.5 2.5-.5-1.5 1.5-2.5zM126.5 181l1.5 3.5h-1l-.5-3.5zM125.5 184l1.5 3.5h-1l-.5-3.5zM157.5 184q3 1.5 0 3l-2.5-.5 2.5-2.5zM354.5 184q4.5 2 1 4-4.5-2-1-4zM453.5 184l.5 8.5h-1l.5-8.5zM462.5 184l.5 11.5h-1l.5-11.5zM36.5 185l2.5 3.5h-3l1-2h-2l1.5-1.5zM108.5 186l2.5.5q-2.1 3.3-2.5-.5z" opacity=".10588235"/>
  <path fill="#4EF1FD" stroke="#4EF1FD" d="M107.5 188q3 1.5 0 3-3-1.5 0-3zM154.5 188l1 2-2.5-.5 1.5-1.5zM357.5 188l1 2-2.5-.5 1.5-1.5zM123.5 189l1.5 2.5h-2l1 2-2.5 3.5-1-2 1.5.5-1-2 2.5-4.5zM39.5 190l4.5 4.5q-2.2 1.3.5 2.5l1-1 3.5 3.5-1.5 1.5-9.5-9.5 1.5-1.5zM464.5 190l.5 8.5-2-1 1.5-7.5zM483.5 190l.5 1.5-1.5 2.5-.5-1.5 1.5-2.5zM105.5 191l1.5 1.5-7.5 7.5-1.5-.5-2.5 3.5-2.5 1.5-.5 266.5-.5-268.5h2l1.5-2.5 1.5.5 8.5-9.5zM152.5 191l2.5.5q-2.1 3.3-2.5-.5zM357.5 191l2.5.5q-2.1 3.3-2.5-.5zM151.5 193l1 2-2.5-.5 1.5-1.5zM360.5 193q2.8 1.3.5 2.5l.5 1.5 1.5-.5q-1.5 3-3 0l-1-2 1.5-1.5zM149.5 196l2.5.5q-2.1 3.3-2.5-.5zM452.5 196l.5 8.5h-1l.5-8.5zM119.5 197q3.5 2-1 4-3.5-2 1-4zM148.5 198l1 2-1-2zM454.5 199l.5 9.5h-1l.5-9.5zM50.5 200q3 1.5 0 3v-3zM147.5 200l1 2-1-2zM364.5 200l-1 2 1-2z" opacity=".10588235"/>
  <path fill="#4EF1FD" stroke="#4EF1FD" d="M116.5 201l1.5 1.5-8.5 8.5-1.5-.5-3 4v221l2 3.5-3-1.5v-223l2-2q-2.2-1.2.5-2.5l10-9zM486.5 201l.5 2.5-1.5 3.5-.5-2.5 1.5-3.5zM25.5 202l1.5 4.5h-1l-.5-4.5zM27.5 202l2 1 1-1 9 9 2.5 1.5q-1.5 3-3 0l-.5-1.5-1 1-9-9-1-1zM53.5 202l.5 269.5h-1v-267l-1-1 1.5-1.5zM146.5 202l1 2-1-2zM365.5 202l-1 2 1-2zM463.5 203l.5 8.5h-1l.5-8.5zM90.5 204l.5 267.5h-1l.5-267.5zM145.5 204l1.5 2.5h-1l-.5-2.5zM487.5 205l.5 2.5h-1l.5-2.5zM465.5 207l.5 9.5h-1l-1-3 1.5-6.5zM143.5 208l1.5 2.5-2-1 .5-1.5zM368.5 208l.5 1.5-.5 1.5 1.5.5-1.5 2.5-1.5-3.5 1.5-2.5zM25.5 209l.5 2.5h-1l.5-2.5zM486.5 209l.5 2.5h-1l.5-2.5zM23.5 210l.5 2.5h-1l.5-2.5zM488.5 210l.5 2.5h-1l.5-2.5zM142.5 211l1.5 2.5h-1l-.5-2.5zM453.5 211l.5 8.5h-1l.5-8.5zM141.5 213l1.5 3.5h-1l-.5-3.5zM370.5 213l.5 1.5-1.5 2.5-.5-1.5 1.5-2.5zM24.5 214l.5 3.5h-1l.5-3.5zM42.5 214l.5 139q-2.7 1.1-2-1.5h-2l1.5-2.5 1 2 1-137zM102.5 214l.5 220.5h-1l.5-220.5zM487.5 214l.5 2.5h-1l.5-2.5zM22.5 215l.5 3.5h-1l.5-3.5zM44.5 215l.5 136.5h-1l.5-136.5zM455.5 215l.5 8.5h-1l.5-8.5zM489.5 215l.5 3.5h-1l.5-3.5zM140.5 216l1.5 3.5h-1l-.5-3.5zM371.5 216l.5 1.5-1.5 2.5-.5-1.5 1.5-2.5zM139.5 219l1.5 3.5h-1l-.5-3.5zM372.5 219l.5 1.5-1.5 3.5-.5-2.5 1.5-2.5zM464.5 219l.5 10.5h-1l.5-10.5zM23.5 220l.5 3.5h-1l-.5-1.5-1 4-.5-3.5 2.5-2.5zM488.5 220l.5 3.5h-1l.5-3.5zM490.5 222l.5 3.5h-1l.5-3.5zM466.5 224l.5 9.5h-1l.5-9.5zM372.5 225l1 2 1.5-.5-1.5 5.5-1-7zM137.5 226l1.5 5.5h-1l-.5-5.5zM454.5 226l.5 9.5h-1l.5-9.5zM22.5 227l.5 5.5h-1l.5-5.5zM489.5 227l.5 5.5h-1l.5-5.5zM20.5 229l.5 5.5h-1l.5-5.5zM491.5 229l.5 6.5h-1l.5-6.5zM136.5 230l.5 2.5h-1l.5-2.5zM375.5 230l.5 3.5-1.5 4.5-.5-3.5 1.5-4.5zM456.5 230l.5 9.5h-1l.5-9.5zM137.5 234l.5 3.5h-1l.5-3.5zM135.5 235l.5 3.5h-1l.5-3.5zM376.5 235l.5 4.5-1.5 6.5-.5-5.5 1.5-5.5zM466.5 235l-.5 1.5-.5 9.5-.5-9.5 1.5-1.5zM21.5 237l.5 9.5h-1l-.5-6.5-1 32-.5-31.5 2.5-3.5zM490.5 237l.5 9.5h-1l.5-9.5zM136.5 240l.5 5.5h-1l.5-5.5zM492.5 240l.5 31.5h-1l.5-31.5zM467.5 241l.5 15.5h-1l.5-15.5zM134.5 242l.5 7.5h-1l.5-7.5zM377.5 242l.5 7.5h-1l.5-7.5zM456.5 244l.5 3.5h-1l.5-3.5zM454.5 246l.5 2.5h-1l.5-2.5zM455.5 250l.5 1.5-1.5 2.5-1.5-2.5h2l.5-1.5zM452.5 253l1.5 2.5h-2l1 2q-1.5 3-3 0l2.5-4.5zM465.5 253l.5 4.5h-1l.5-4.5zM449.5 259l.5 2.5-4.5 4.5-9 5-1.5-.5-.5 1.5-.5-3 3.5 1v-2l2 1v-2l1.5.5 1.5-2.5 1.5.5 5.5-6.5zM465.5 259q2.3-.7 1.5 1.5h-2l-.5 1.5-.5-1.5 1.5-1.5zM377.5 261l.5 7.5h-1l.5-7.5zM134.5 262l.5 7.5h-1l.5-7.5zM463.5 263l1.5 3.5h-1l-.5-3.5zM21.5 265l.5 10.5q-2.5 1.5-1 7h1l.5-3.5.5 5.5-3-2 1-8v-2l.5-7.5zM490.5 265l.5 9.5h-1l.5-9.5zM136.5 266l.5 5.5h-1l.5-5.5zM375.5 266l.5 5.5h-1l.5-5.5zM460.5 270l2.5.5q-2.1 3.3-2.5-.5z" opacity=".10588235"/>
  <path fill="#4EF1FD" stroke="#4EF1FD" d="M459.5 272q3.5 2-1 4-3.5-2 1-4zM135.5 273l.5 3.5h-1l.5-3.5zM376.5 273l.5 3.5h-1l.5-3.5zM137.5 274l.5 3.5h-1l.5-3.5zM374.5 274l.5 3.5h-1l.5-3.5zM455.5 277l-1 2 1-2zM491.5 277l.5 5.5h-1l.5-5.5zM136.5 279l.5 2.5h-1l.5-2.5zM374.5 279q2.6-.8 1.5 2.5h-1l-.5-1.5-.5 2.5 1 3h-1l-1-5 1.5-1.5zM452.5 279q3.5 2-1 4l-1.5-.5-1.5 2.5-2-1v2q-3-1.5 0-3l6-4zM489.5 279l.5 5.5h-1l.5-5.5zM138.5 280l.5 2.5h-1l.5-2.5zM372.5 285l1.5 4.5h-1l-.5-4.5zM21.5 286l.5 3.5h-1l.5-3.5zM444.5 286l-1 2 1-2zM490.5 286l.5 3.5h-1l.5-3.5zM441.5 287l.5 108.5h-1l.5-108.5zM23.5 288l.5 3.5h-1l.5-3.5zM140.5 288l.5 2.5-1.5 2.5-.5-1.5 1.5-3.5zM371.5 288l1.5 4.5h-1l-.5-4.5zM488.5 288l.5 3.5h-1l.5-3.5zM141.5 292l.5 1.5-1.5 2.5-.5-1.5 1.5-2.5zM370.5 292l1.5 3.5h-1l-.5-3.5zM22.5 293l1 4 1-2 .5 3-3-1.5.5-3.5zM489.5 293l.5 3.5h-1l.5-3.5zM142.5 295l.5 1.5-1.5 2.5-.5-1.5 1.5-2.5zM369.5 295l1.5 3.5h-1l-.5-3.5zM487.5 295l.5 2.5h-1l.5-2.5zM143.5 298l.5 1.5-2 1 1.5-2.5zM368.5 298l1.5 2.5-2-1 .5-1.5zM23.5 299l.5 2.5h-1l.5-2.5zM488.5 299l.5 2.5h-1l.5-2.5zM25.5 300l.5 2.5h-1l.5-2.5zM486.5 300l.5 2.5h-1l.5-2.5zM144.5 301l-.5 1.5-.5 1.5-.5-1.5 1.5-1.5zM367.5 301l1.5 2.5h-1l-.5-2.5zM24.5 304l.5 2.5h-1l.5-2.5zM487.5 304l.5 2.5h-1l.5-2.5zM26.5 305l.5 2.5-1.5 3.5-.5-2.5 1.5-3.5zM146.5 305l.5 1.5-2 1 1.5-2.5zM365.5 305l1.5 2.5-2-1 .5-1.5zM485.5 305l1.5 5.5h-1l-.5-5.5zM147.5 308l-1 2 1-2zM364.5 308l1 2-1-2zM27.5 309l.5 2.5h-1l.5-2.5zM148.5 310l-1 2 1-2zM363.5 310l1 2-1.5.5.5 1.5q-2.8-1.2-.5-2.5l.5-1.5zM484.5 310l1.5 4.5h-1l-.5-4.5zM149.5 312l-1 2 1-2zM150.5 314l1 2-2.5-.5 1.5-1.5zM361.5 314l1 2-2.5-.5 1.5-1.5zM27.5 317l1 2 1-2 .5 2.5-1.5 2.5-1-5zM150.5 317l2.5.5q-2.1 3.3-2.5-.5zM359.5 317l2.5.5q-2.1 3.3-2.5-.5zM482.5 318l1.5 3.5h-1l-.5-3.5zM153.5 319l1 2-2.5-.5 1.5-1.5zM358.5 319l1 2-2.5-.5 1.5-1.5zM30.5 321l.5 1.5-1.5 2.5-.5-1.5 1.5-2.5zM153.5 322l2.5.5q-2.1 3.3-2.5-.5zM356.5 322l2.5.5q-2.1 3.3-2.5-.5z" opacity=".10588235"/>
  <path fill="#4EF1FD" stroke="#4EF1FD" d="M355.5 324q3.5 2-1 4-3.5-2 1-4zM155.5 325l3.5 1.5-1.5 1.5-2-3zM480.5 325l1.5 3.5h-1l-.5-3.5zM32.5 328l.5 1.5-1.5 2.5-.5-1.5 1.5-2.5zM159.5 328q4.5 2 1 4-4.5-2-1-4zM352.5 328q3.5 2-1 4-3.5-2 1-4zM479.5 328l1.5 3.5h-1l-.5-3.5zM478.5 331l1.5 3.5h-1l-.5-3.5zM162.5 332l4.5 4.5-.5 2.5-5.5-5.5 1.5-1.5zM349.5 332l1.5 1.5-6.5 6.5 1.5-2.5-1-1 4.5-4.5zM33.5 336l2.5.5-1.5 3.5-1-4zM476.5 336l1.5 3.5h-1l-.5-3.5zM36.5 339l.5 1.5-2 1 1.5-2.5zM475.5 339l1.5 3.5h-1l-.5-3.5zM169.5 340l1 2-1-2zM342.5 340l-3 4 3-4zM36.5 344l2.5.5-1.5 2.5-1-3zM174.5 344q10.7 11.3 25.5 18.5l-2 1 .5-1.5-2 1v-2l-2 1-2-3-1.5.5.5-1.5-2 1-1-3-2 1-3-4q-1.7 2.8-3.5-1.5l-.5-1.5-1 1-5.5-5.5 1.5-1.5zM473.5 344l1.5 2.5-2-1 .5-1.5zM336.5 345l2.5.5-5.5 5.5-1.5-.5-2.5 3.5-1.5-.5-2.5 3.5q-3.5-2 1-4l10-8zM39.5 347l-.5 1.5-.5 1.5-.5-1.5 1.5-1.5zM472.5 347l1.5 2.5h-1l-.5-2.5zM470.5 351l1.5 2.5-2-1 .5-1.5zM469.5 354l1 2-1-2zM322.5 356q3 1.5 0 3l-2-1v2l-1.5-.5-1.5 2.5-2-1v2l-2-1v2q-3-1.5 0-3l9-5zM468.5 356l1 2-1-2zM467.5 358l1.5 2.5-2.5 3.5-1-2 1.5.5-1-2h2l-.5-2.5zM201.5 363l-1 2 1-2zM310.5 363l1 2-1-2zM203.5 364l3.5 1.5-2.5 1.5v-2l-2 1 1-2zM307.5 364l2.5 1.5-1.5-.5-1.5.5.5 1.5-2.5-1.5 2.5-1.5zM464.5 364l1 2-1-2zM463.5 366l1 2-1-2zM210.5 367l-1 2-1.5-.5 2.5-1.5zM301.5 367l2.5 1.5-1.5.5-1-2zM212.5 368l1.5.5-2.5 1.5 1-2zM298.5 368l2.5 1.5-1.5-.5-1-1zM462.5 368l1 2-1.5-.5 1 2-2.5 3.5-1-2 1.5.5-1-2 2.5-3.5zM215.5 369l1.5.5-3.5 1.5v-1l2-1zM295.5 369l3.5 1.5-1.5.5-2-2zM218.5 370l1.5.5-3.5 1.5v-1l2-1zM292.5 370l3.5 1.5-1.5.5-2-2zM221.5 371l2.5.5-4.5 1.5v-1l2-1zM289.5 371l3.5 1.5-1.5.5-2-2zM225.5 372l1.5.5-4.5 1.5v-1l3-1zM285.5 372l4.5 1.5-2.5.5-2-2zM229.5 373l2.5.5-2.5.5v-1zM280.5 373l2.5.5-2.5.5v-1zM234.5 374l3.5.5-3.5.5v-1zM274.5 374l3.5.5-3.5.5v-1zM230.5 375l2.5.5-2.5.5v-1zM240.5 375l5.5.5-5.5.5v-1zM266.5 375l5.5.5-5.5.5v-1zM279.5 375l2.5.5-2.5.5v-1zM458.5 375l1 2-2.5-.5 1.5-1.5zM235.5 376l3.5.5-3.5.5v-1zM273.5 376l3.5.5-3.5.5v-1zM242.5 377l7.5.5-7.5.5v-1zM262.5 377l7.5.5-7.5.5v-1zM456.5 378l2.5.5q-2.1 3.3-2.5-.5z" opacity=".10588235"/>
  <path fill="#4EF1FD" stroke="#4EF1FD" d="M455.5 380q3 1.5 0 3-3-1.5 0-3zM453.5 383q3 1.5 0 3-3-1.5 0-3zM451.5 386q3 1.5 0 3-3-1.5 0-3zM449.5 389q3 1.5 0 3-3-1.5 0-3zM447.5 392q3.5 2-1 4-3.5-2 1-4zM443.5 396l1.5.5-2.5 1.5 1-2zM109.5 439l3 4q1.8-2.7 3.5 1.5-2.3 3.7-4.5-1.5l-1.5-.5q2.3-1.2-.5-2.5l-1.5.5 1.5-1.5zM117.5 445l3 4q1.3-2.2 2.5.5-1.7 3.3-3.5-.5l-3.5-2.5 1.5-1.5zM124.5 450q3 1.5 0 3v-3zM385.5 451l-1 4q-3.5-2 1-4zM127.5 452q3 1.5 0 3-3-1.5 0-3zM130.5 454l2 3 1.5-.5-.5 1.5 2-1q3 1.5 0 3l-6.5-4.5 1.5-1.5zM381.5 454q3 1.5 0 3l-5 3q-3-1.5 0-3l2 1v-2l1.5.5 1.5-2.5zM138.5 459v2l2-1 3.5 2.5-2 1 .5-1.5-2 1-3.5-2.5 1.5-1.5zM373.5 459q3 1.5 0 3l-4 2q-3-1.5 0-3l2-1 2 1v-2zM145.5 463l-1 2 1-2zM366.5 463l1 2-12 6-1-2 2 1v-2l2 1v-2l2 1v-2l2 1v-2l2 1v-2l1.5.5.5-1.5zM149.5 465v2l2-1v2l2-1v2l2-1v2l3-1 4.5 2.5-2.5 1.5v-2l-2 1v-2l-3 1-8.5-4.5 2.5-1.5zM434.5 468l.5 3.5h-1l.5-3.5zM55.5 470l.5 2.5-1.5 2.5-.5-1.5 1.5-3.5zM351.5 470l2.5 1.5-1.5-.5-1.5.5.5 1.5-2.5-1.5 2.5-1.5zM164.5 472v2l3-1v1l-3 1-2.5-1.5 2.5-1.5zM347.5 472l2.5 1.5-3.5 1.5-2.5-1.5 1.5-.5 2 1v-2zM89.5 473l1.5 2.5-2-1 .5-1.5zM398.5 473l.5 1.5-2 1 1.5-2.5zM56.5 474l7 10 1.5-.5-.5 1.5 2-1v2l1.5.5-1.5.5-6.5-4.5q2.3-1.2-.5-2.5-1.2 2.3-2.5-.5l.5-1.5-2.5-1.5 1.5-2.5zM431.5 474l1.5 2.5h-3l1.5-2.5zM171.5 475l1.5.5-3.5 1.5v-1l2-1zM339.5 475l3.5 1.5-1.5.5-2-2zM88.5 476l1 2-1-2zM174.5 476l-1 2-1.5-.5 2.5-1.5zM336.5 476l3.5 1.5-1.5.5-2-2zM399.5 476q3 1.5 0 3-3-1.5 0-3zM176.5 477l1.5.5-2.5 1.5 1-2zM179.5 478l1.5.5-3.5 1.5v-1l2-1zM331.5 478l3.5 1.5-1.5.5-2-2zM429.5 478l1.5 1.5-4.5 4.5-1.5-1.5 4.5-4.5zM86.5 479q3.5 2-1 4-3.5-2 1-4zM182.5 479l1.5.5-3.5 1.5v-1l2-1zM328.5 479l3.5 1.5-1.5.5-2-2zM401.5 479l2.5 3.5h-1l-1.5-3.5zM185.5 480l1.5.5-3.5 1.5v-1l2-1zM325.5 480l3.5 1.5-1.5.5-2-2zM82.5 482q3 1.5 0 3-3-1.5 0-3zM192.5 482l1.5.5-3.5 1.5v-1l2-1zM318.5 482l3.5 1.5-1.5.5-2-2zM405.5 482q3 1.5 0 3v-3zM196.5 483l5.5 1.5-.5 1.5 1.5.5-1.5.5q-1.5-3.5-3-1-2.2.8-1.5-1.5l-.5-1.5zM314 483q2.7-1.1 2 1.5l-2.5 1.5.5-1.5V483zM423.5 483q3 1.5 0 3v-3zM78.5 484l2.5 1.5-1.5-.5-1-1zM310 484q2.7-1.1 2 1.5l-2.5 1.5.5-1.5V484zM408.5 484l1.5.5-2.5 1.5 1-2zM69.5 485q6.8-1.3 9.5 1.5l-1.5.5-3-1v2l-4.5-.5 2-1q-3.3.1-2.5-1.5zM204.5 485l2.5.5-2.5.5v-1zM305.5 485l2.5.5-1 2.5q-3.8 1.5-3-1.5l1.5-1.5zM411.5 485l7.5.5-2 1 .5 1.5-4.5-.5 2-1-3.5-.5-2 1v-1l2-1zM208.5 486l8.5 1 .5 2q1.2-2.2 6-1l8.5 1.5-.5 1.5 3.5.5-5.5.5-3-2-4 1v-2l-7.5 1q1.1-2.7-1.5-2l-3 1v-1l1.5-.5-3.5-.5-3 1v-1l3-1zM300.5 486l2.5.5-2.5.5v-1zM295 487l3 .5-1 2.5-7.5-1v1l1.5.5-3.5.5-1-2 6-1 2.5 1v-2zM299.5 488l2.5.5-2.5.5v-1zM280.5 489q5.9-1.7 4.5 2l-8 1 .5-2 4 1v-1l-1-1zM237 490l9 .5-2 1 7.5.5 2-1 2 1 5-1q1.5 2.5 7 1v-1l-1.5-.5 8.5-.5v1l-3.5.5.5 1.5h-31l-.5-2h-1.5l-1.5.5V490z" opacity=".10588235"/>
</svg>
