<svg version="1" xmlns="http://www.w3.org/2000/svg" width="682.667" height="682.667" viewBox="0 0 512.000000 512.000000"><path d="M236 21.6c-24.5 3-44.3 7.5-62.1 14.2-10.6 4-31.5 14-38.9 18.7l-3.9 2.5-.3 59.2c-.3 54.2-.5 59.8-2.2 64.8-3.6 11-7.6 17.3-16.2 25.8l-8.4 8.3v219.7l4.8 4.2c7.8 7 30.1 21.3 43.3 27.7 22.2 10.9 44.9 18 70 22 15.9 2.5 51.9 2.5 67.8 0 31.7-5 62.7-16.2 87.9-31.7l8.2-5.1V60.1l-8.2-5.1c-24.9-15.3-56.1-26.7-86.9-31.5-10-1.6-46.9-2.9-54.9-1.9zm43.5 114.9c50 10.3 87 48 96.6 98.5 1.9 10 1.7 33.8-.5 44-5.3 25.2-16.3 45.8-34.1 63.5C288 395.8 199 387.6 156 325.4c-9.8-14.1-17.1-31.9-20.1-48.4-1.7-9.6-1.7-32.4 0-42 9.4-52.4 51.5-92.5 104.7-99.9 9.4-1.3 29.2-.6 38.9 1.4z"/><path d="M37.3 43.5c-1.7.7-3.6 2.3-4.2 3.4-.8 1.5-1.1 20.6-.9 65.8l.3 63.8 3.1 6.6c3.7 7.7 8.7 13.7 15 17.6l4.4 2.8v267.9l2.1 4.4c3.7 7.5 12.9 11.7 20.5 9.2 5.1-1.7 11.2-7.5 12.4-11.8.6-2.4 1-50 1-136.7l.1-133 5.9-4.2c7-5 12.3-12.5 15-21.2 1.9-6 2-9.4 2-68 0-61.3 0-61.7-2.1-64-4.3-4.6-10-4.8-14.1-.4l-2.3 2.5-.3 55.1c-.2 50.3-.4 55.3-1.9 56.4-2 1.6-6.7 1.7-9.4.3-1.8-1-1.9-2.7-1.9-56.1 0-37.5-.3-55.7-1.1-57.1-.6-1.1-2.6-2.6-4.5-3.4-2.9-1.2-3.9-1.2-6.8 0-6.7 2.8-6.6 1.5-6.6 61.5 0 52.4-.1 54.1-1.9 55.1-2.2 1.1-6.1 1.3-8.5.4-1.4-.6-1.6-6.3-1.6-54.5 0-60.2.1-59.7-6.4-62.4-4.1-1.8-3.3-1.8-7.3 0zM408.5 46.4c-4.1 1.8-7.1 5.3-9.2 10.6-1.7 4.3-1.8 15.4-2.1 207.8-.2 141 .1 204.6.8 207.3 2.3 8.4 11.8 14.9 19.7 13.5 5.4-1 10.9-5 13.3-9.6 2-3.9 2-5.6 2-104.7V270.5l5-2.3c10-4.6 16-13.3 16.7-24.2.6-9.6-10.4-174.5-12-180.5-2.1-7.6-4.5-12.2-8.3-15.5-3.4-2.9-3.8-3-13.2-3-5.8.1-10.9.6-12.7 1.4z"/><path d="M461.7 149.2c2.6 34.3 5.9 103.3 5.2 107.6-1.7 11.2-8.7 21.6-18.5 27.4l-5.4 3.3v54.7c0 30.2.3 54.8.8 54.8 1.5 0 16.9-24.9 22.9-37 10.9-22.2 18-45 22-70.1 2.4-15.9 2.5-52 0-67.4-2.4-15.7-6.9-33.5-11.8-46.6-4.4-12.1-13.7-31.9-14.9-31.9-.3 0-.5 2.4-.3 5.2zM26 207.2c-3.5 16.4-4.4 26.9-4.4 48.8-.1 25 1.2 36.1 6.5 57.3 3.3 12.9 11.1 35.2 13.4 38.3 1.2 1.6 1.4-7.6 1.5-67.1v-69.1l-7-5.7c-3.8-3.1-7-6.2-7-6.7 0-.6-.4-1-.9-1s-1.4 2.4-2.1 5.2z"/></svg>